<svg xmlns="http://www.w3.org/2000/svg" width="33.418" height="30.905" viewBox="0 0 33.418 30.905"><defs><style>.a{fill:#fff;}</style></defs><g transform="translate(0.005 0.003)"><g transform="translate(-0.005 -0.003)"><path class="a" d="M32.963,13.9a.906.906,0,0,0-.906,0l-6.465,3.694V15.852a2.078,2.078,0,0,0-1.561-2.01A7.335,7.335,0,1,0,13.99,4.255a7.336,7.336,0,1,0-10.151,9.53,2.077,2.077,0,0,0-1.9,2.067V28.827A2.077,2.077,0,0,0,4.009,30.9H23.517a2.077,2.077,0,0,0,2.075-2.075V25.99l6.394,3.73a.906.906,0,0,0,1.363-.779l.063-14.254a.906.906,0,0,0-.45-.787ZM20.647,1.81a5.524,5.524,0,1,1-5.524,5.524A5.524,5.524,0,0,1,20.647,1.81ZM17.14,13.777h-6.3a7.385,7.385,0,0,0,3.15-3.364A7.385,7.385,0,0,0,17.14,13.777ZM1.808,7.334a5.524,5.524,0,1,1,5.524,5.524A5.524,5.524,0,0,1,1.808,7.334Zm21.97,21.492a.265.265,0,0,1-.262.262H4.009a.265.265,0,0,1-.262-.262V15.852a.265.265,0,0,1,.262-.262H23.517a.265.265,0,0,1,.262.262Zm7.765-1.463-5.952-3.472V19.679l6-3.429Z" transform="translate(0.005 0.003)"/></g></g></svg>