<svg xmlns="http://www.w3.org/2000/svg" width="22.914" height="32.522" viewBox="0 0 22.914 32.522"><defs><style>.a{fill:#fff;}</style></defs><g transform="translate(0 2.886) rotate(-9)"><path class="a" d="M15.436,0H3.011A3.014,3.014,0,0,0,0,3.011V26.995a3.014,3.014,0,0,0,3.011,3.011H15.436a3.014,3.014,0,0,0,3.011-3.011V3.011A3.014,3.014,0,0,0,15.436,0ZM1.683,3.011A1.329,1.329,0,0,1,3.011,1.683H15.436a1.329,1.329,0,0,1,1.328,1.328v.383H1.683ZM16.764,4.235V23.6H1.683V4.235ZM15.436,28.323H3.011a1.329,1.329,0,0,1-1.328-1.328V24.441H16.764v2.554a1.329,1.329,0,0,1-1.328,1.328Z"/><circle class="a" cx="1.191" cy="1.191" r="1.191" transform="translate(8.032 25.172)"/></g></svg>