<svg xmlns="http://www.w3.org/2000/svg" width="33.418" height="34.099" viewBox="0 0 33.418 34.099"><defs><style>.a{fill:#fff;}</style></defs><g transform="translate(0)"><g transform="translate(0 0)"><path class="a" d="M27.976,26.642a1.115,1.115,0,0,0,.786.347h.027a1.115,1.115,0,0,0,.774-.31l3.506-3.344a1.124,1.124,0,0,0,.038-1.588l-5.027-5.272a1.124,1.124,0,0,0-1.588-.038l-.328.313-.5-2.1a.687.687,0,0,0-1.14-.34l-3.868,3.656a.687.687,0,0,0,.275,1.157l2.09.624-.036.034a1.124,1.124,0,0,0-.038,1.588l1.929,2.023a.914.914,0,0,0-.045.284v1.705l-10.178-13.2a6.786,6.786,0,0,1,3.681-.893.916.916,0,0,0,.937-.722A6.774,6.774,0,0,1,26.2,5.222h.005c.025,0,.05,0,.075,0H26.3a.91.91,0,0,0,.486-.175l.011-.008.008-.006c.015-.012.029-.025.043-.037l.017-.015c.016-.015.032-.031.047-.047l.016-.017c.014-.016.027-.032.04-.049l.016-.021c.012-.016.022-.032.033-.049l.017-.027c.009-.015.017-.031.025-.046l.017-.034c.006-.014.012-.028.018-.043s.011-.027.016-.041.009-.027.013-.041.009-.03.013-.045.006-.03.009-.045.006-.028.008-.042,0-.038.005-.056,0-.019,0-.028,0,0,0,0c0-.023,0-.046,0-.068,0-.008,0-.015,0-.023,0-.025,0-.051-.008-.076,0,0,0-.009,0-.014a.91.91,0,0,0-.067-.224c0-.011-.009-.021-.014-.032s-.012-.021-.018-.032-.017-.032-.026-.047L27.006,3.8c-.011-.016-.021-.032-.032-.047l0,0C25.024,1.224,21.871-.1,18.1.006A18.948,18.948,0,0,0,7.287,4.124,18.948,18.948,0,0,0,.555,13.53C-.513,17.154-.03,20.54,1.916,23.064l0,0a.916.916,0,0,0,.066.076L2,23.159c.018.018.036.035.056.051l.029.022.05.036.033.021.052.029.035.018.054.022.037.014.057.016.039.01h0l.053.009.04.006a.912.912,0,0,0,.1.006h.033l.041,0,.038,0,.038,0,.034-.007.041-.009.029-.008.044-.014.026-.01.045-.018.025-.012.043-.022.027-.016.038-.023.03-.021L3.2,23.23l.006,0c.022-.018.044-.036.065-.056l.006-.006q.027-.026.053-.055l.02-.024c.011-.014.022-.028.033-.042l.019-.028.027-.043.017-.03c.008-.015.015-.03.023-.045l.014-.031c.007-.015.012-.031.018-.047s.008-.022.012-.032.009-.033.014-.049.006-.022.009-.033l0-.006a6.774,6.774,0,0,1,6.931-5.344.912.912,0,0,0,.937-.722A6.785,6.785,0,0,1,13.2,13.3L24.833,28.381v4.8a.916.916,0,0,0,1.831,0V30.756l2.081,2.7a.916.916,0,1,0,1.45-1.118l-3.531-4.58V25.265ZM18.15,1.837A9.384,9.384,0,0,1,24.2,3.555a8.585,8.585,0,0,0-5.917,4.427,12.974,12.974,0,0,0-6.064-3.9c-.387-.113-.756-.2-1.1-.268A16.043,16.043,0,0,1,18.15,1.837ZM4.905,17.306a8.612,8.612,0,0,0-2.471,3.03C.743,16.277,2.683,10.62,7.294,6.5A14.992,14.992,0,0,0,7.08,8.38a11.71,11.71,0,0,0,1.9,7.219,8.616,8.616,0,0,0-4.073,1.707Zm5.169-2.532A10.22,10.22,0,0,1,8.449,8.492,13.749,13.749,0,0,1,9.043,5.1l.18-.127a11.375,11.375,0,0,1,8.464,4.43c-.005.017-.011.033-.016.05a8.6,8.6,0,0,0-7.6,5.317Zm12.391,3.375,2.14-2.022.41,1.722-.848.808Zm4.794-.544,4.682,4.909-3.144,3L24.116,20.6Z" transform="translate(0 0)"/></g></g></svg>