<svg xmlns="http://www.w3.org/2000/svg" width="33.852" height="33.852" viewBox="0 0 33.852 33.852"><defs><style>.a{fill:#fff;}</style></defs><g transform="translate(0.041 0)"><g transform="translate(-0.041 0)"><g transform="translate(0 0)"><path class="a" d="M10.242,5.156c-.274.046-.544.1-.81.165a5.651,5.651,0,0,0,.8-4.3c-.653-1.767-3.558-.988-3.491.4-.917-1.04-3.563.2-2.91,1.968A5.532,5.532,0,0,0,7.1,6.128a12.317,12.317,0,1,0,3.142-.972Zm3.727,22.206A10.2,10.2,0,1,1,22.34,15.613a10.2,10.2,0,0,1-8.372,11.749Z" transform="translate(0.041 0)"/><path class="a" d="M131.685,86.258q-.286-.3-.587-.582a5.651,5.651,0,0,0,4.015-1.726c1.106-1.525-1.157-3.507-2.27-2.681.354-1.34-2.148-2.85-3.254-1.324a5.533,5.533,0,0,0-.458,4.242,12.318,12.318,0,1,0,2.555,2.071ZM115.3,101.7a10.2,10.2,0,1,1,14.42.425A10.2,10.2,0,0,1,115.3,101.7Z" transform="translate(-101.557 -73.172)"/></g></g></g></svg>