<svg xmlns="http://www.w3.org/2000/svg" width="33.852" height="25.48" viewBox="0 0 33.852 25.48"><defs><style>.a,.b{fill:#fff;}.a{fill-rule:evenodd;}</style></defs><path class="a" d="M129.924,68.949a8.117,8.117,0,1,0,8.118,8.118A8.117,8.117,0,0,0,129.924,68.949Zm0,14.385a6.268,6.268,0,1,1,6.269-6.268,6.268,6.268,0,0,1-6.269,6.268Z" transform="translate(-110.542 -62.572)"/><path class="a" d="M29.7,3.546H27.341A4,4,0,0,0,23.368,0H15.453a4,4,0,0,0-3.969,3.546H4.147A4.154,4.154,0,0,0,0,7.7V21.331A4.153,4.153,0,0,0,4.147,25.48H29.7a4.154,4.154,0,0,0,4.149-4.149V7.7A4.155,4.155,0,0,0,29.7,3.546ZM32,21.331a2.3,2.3,0,0,1-2.3,2.3H4.147a2.3,2.3,0,0,1-2.3-2.3V7.7a2.3,2.3,0,0,1,2.3-2.3h9.161V4A2.15,2.15,0,0,1,15.453,1.85h7.915A2.152,2.152,0,0,1,25.517,4V5.4H29.7A2.3,2.3,0,0,1,32,7.7Z"/><path class="a" d="M82.711,104.655a.925.925,0,0,0-.925.925v7.781a.925.925,0,0,0,1.85,0V105.58A.925.925,0,0,0,82.711,104.655Z" transform="translate(-74.222 -94.976)"/><path class="a" d="M178.429,28.918h3.89a.925.925,0,1,0,0-1.85h-3.89a.925.925,0,0,0,0,1.85Z" transform="translate(-161.088 -24.565)"/><path class="a" d="M174.378,117.938a3.587,3.587,0,1,0,3.587,3.587A3.587,3.587,0,0,0,174.378,117.938Z" transform="translate(-154.996 -107.03)"/><ellipse class="b" cx="1.394" cy="0.451" rx="1.394" ry="0.451" transform="translate(3.588 5.96)"/></svg>