<svg xmlns="http://www.w3.org/2000/svg" width="31.609" height="22.222" viewBox="0 0 31.609 22.222"><defs><style>.a{fill:#fff;}</style></defs><g transform="matrix(0.996, 0.087, -0.087, 0.996, 1.715, 0)"><g transform="translate(0 0)"><path class="a" d="M27.706,0H2.3A2.3,2.3,0,0,0,0,2.3V17.38a2.3,2.3,0,0,0,2.3,2.3H27.706a2.3,2.3,0,0,0,2.3-2.3V2.3a2.3,2.3,0,0,0-2.3-2.3ZM26.445,1.724,15.11,8.889,3.737,1.724Zm1.262,16.234H2.3a.586.586,0,0,1-.578-.578V2.492L14.545,10.57A.862.862,0,0,0,15,10.7h.214a.862.862,0,0,0,.461-.133L28.284,2.6V17.38a.586.586,0,0,1-.578.578Z" transform="translate(0 0)"/></g></g></svg>