<svg xmlns="http://www.w3.org/2000/svg" width="36.512" height="22.178" viewBox="0 0 36.512 22.178"><defs><style>.a{fill:#fff;}</style></defs><g transform="translate(0 0)"><g transform="translate(0 0)"><path class="a" d="M17.944,1.994,32.7,5.381l-14.73,6.087L3.634,5.541Zm6.59,12.794c-.374.527-1.989,2.326-6.6,2.326-4.547,0-6.119-1.813-6.467-2.315l-.027-3.793L17.4,13.8a1.224,1.224,0,0,0,1.048.006l6.109-2.759Zm-6.6,4.3c7.787,0,8.568-4.213,8.568-4.213l.034-4.813L31.8,7.886v7.355a3.182,3.182,0,0,0-1.819,3.087,2.178,2.178,0,0,0,.167.937.282.282,0,0,1,.029.122v2.064a.208.208,0,1,0,.417,0V19.726l.006,0a.291.291,0,0,1,.16.26V21.71a.208.208,0,1,0,.417,0V19.881c.054.006.109.01.166.013v2.075a.208.208,0,1,0,.417,0V19.9h.166V21.71a.208.208,0,1,0,.417,0V19.9H32.5v2.071a.208.208,0,1,0,.417,0V19.9l.166,0v2.065a.208.208,0,1,0,.417,0V19.9q.085,0,.166-.011v2.082a.208.208,0,1,0,.417,0V20.008a.274.274,0,0,1,.166-.252V21.71a.208.208,0,1,0,.417,0v-2.2a.291.291,0,0,1,.044-.149,1.993,1.993,0,0,0,.217-1.029,3.182,3.182,0,0,0-1.819-3.087v-7.9L35.8,6.23l.061-.028a1.164,1.164,0,0,0-.129-2.14l-.053-.019-17.436-4a1.167,1.167,0,0,0-.64.006L.9,4.189l-.108.033A1.214,1.214,0,0,0,.67,6.445L.7,6.461l8.762,3.623L9.5,15.012c0,.035,0,.07.006.105C9.505,15.118,10.684,19.085,17.935,19.085Z" transform="translate(0 0)"/></g></g></svg>