<svg xmlns="http://www.w3.org/2000/svg" width="33.852" height="22.203" viewBox="0 0 33.852 22.203"><defs><style>.a{fill:#fff;}</style></defs><g transform="translate(0 0)"><path class="a" d="M31.255,0H2.6A2.6,2.6,0,0,0,0,2.6v17.01a2.6,2.6,0,0,0,2.6,2.6H31.255a2.6,2.6,0,0,0,2.6-2.6V2.6a2.6,2.6,0,0,0-2.6-2.6ZM29.832,1.944,17.046,10.028,4.216,1.944Zm1.423,18.314H2.6a.661.661,0,0,1-.652-.652V2.812l14.463,9.112a.972.972,0,0,0,.518.15h.241a.973.973,0,0,0,.52-.15l14.221-8.99V19.606a.661.661,0,0,1-.652.652Z" transform="translate(0 0)"/></g></svg>