<svg xmlns="http://www.w3.org/2000/svg" width="36.512" height="35.525" viewBox="0 0 36.512 35.525"><defs><style>.a{fill:#fff;}</style></defs><g transform="translate(2.075)"><g transform="translate(-2.075 0)"><g transform="translate(0 0)"><path class="a" d="M213.313,176.052,205.578,164.5l4.681-3.134a1.032,1.032,0,0,0-1.148-1.715l-4.681,3.134-2.571-3.84a1.032,1.032,0,1,0-1.715,1.148l2.571,3.84-4.681,3.134a1.032,1.032,0,0,0,1.148,1.715l4.681-3.134L211.6,177.2a1.032,1.032,0,0,0,1.715-1.148Z" transform="translate(-176.976 -142.133)"/><circle class="a" cx="1.055" cy="1.055" r="1.055" transform="translate(20.571 14.672)"/><circle class="a" cx="1.055" cy="1.055" r="1.055" transform="translate(17.439 14.335)"/><circle class="a" cx="1.055" cy="1.055" r="1.055" transform="translate(14.893 17.5) rotate(-45)"/><circle class="a" cx="1.055" cy="1.055" r="1.055" transform="translate(13.951 20.667) rotate(-67.5)"/><circle class="a" cx="1.055" cy="1.055" r="1.055" transform="translate(10.849 19.224) rotate(-9.217)"/><circle class="a" cx="1.055" cy="1.055" r="1.055" transform="translate(9.026 16.445)"/><circle class="a" cx="1.055" cy="1.055" r="1.055" transform="translate(8.449 13.079)"/><circle class="a" cx="1.055" cy="1.055" r="1.055" transform="translate(9.736 10.465) rotate(-13.282)"/><circle class="a" cx="1.055" cy="1.055" r="1.055" transform="translate(10.081 7.309)"/><circle class="a" cx="1.055" cy="1.055" r="1.055" transform="translate(6.958 7.594) rotate(-45)"/><circle class="a" cx="1.055" cy="1.055" r="1.055" transform="translate(4.708 7.594)"/><circle class="a" cx="1.055" cy="1.055" r="1.055" transform="translate(3.098 10.434)"/><circle class="a" cx="1.055" cy="1.055" r="1.055" transform="translate(0.431 8.364)"/><circle class="a" cx="1.055" cy="1.055" r="1.055" transform="translate(0 5.755) rotate(-13.282)"/><circle class="a" cx="1.055" cy="1.055" r="1.055" transform="translate(1.775 2.606)"/><circle class="a" cx="1.055" cy="1.055" r="1.055" transform="translate(4.153 0.826)"/><circle class="a" cx="1.055" cy="1.055" r="1.055" transform="translate(6.99)"/><circle class="a" cx="1.055" cy="1.055" r="1.055" transform="translate(10.081 0.24)"/><circle class="a" cx="1.055" cy="1.055" r="1.055" transform="translate(12.097 3.165) rotate(-45)"/><circle class="a" cx="1.055" cy="1.055" r="1.055" transform="translate(13.666 4.986) rotate(-13.282)"/><circle class="a" cx="1.055" cy="1.055" r="1.055" transform="translate(14.935 7.594)"/><circle class="a" cx="1.055" cy="1.055" r="1.055" transform="translate(17.829 8.649)"/><circle class="a" cx="1.055" cy="1.055" r="1.055" transform="translate(19.922 8.364) rotate(-45)"/><circle class="a" cx="1.055" cy="1.055" r="1.055" transform="translate(21.412 4.986) rotate(-13.282)"/><circle class="a" cx="1.055" cy="1.055" r="1.055" transform="translate(23.736 2.606)"/><circle class="a" cx="1.055" cy="1.055" r="1.055" transform="translate(26.417 3.347) rotate(-9.217)"/><circle class="a" cx="1.055" cy="1.055" r="1.055" transform="translate(28.698 4.992)"/><circle class="a" cx="1.055" cy="1.055" r="1.055" transform="translate(28.698 7.594)"/><circle class="a" cx="1.055" cy="1.055" r="1.055" transform="translate(30.178 9.887) rotate(-9.217)"/><circle class="a" cx="1.055" cy="1.055" r="1.055" transform="translate(33.266 10.194)"/><circle class="a" cx="1.055" cy="1.055" r="1.055" transform="translate(31.631 12.543)"/><circle class="a" cx="1.055" cy="1.055" r="1.055" transform="translate(28.698 12.49)"/><circle class="a" cx="1.055" cy="1.055" r="1.055" transform="translate(26.116 11.488)"/><circle class="a" cx="1.055" cy="1.055" r="1.055" transform="translate(24.081 9.419)"/><circle class="a" cx="1.055" cy="1.055" r="1.055" transform="translate(22.469 11.488)"/></g></g></g></svg>