<svg xmlns="http://www.w3.org/2000/svg" width="33.851" height="22.203" viewBox="0 0 33.851 22.203"><defs><style>.a{fill:#fff;}</style></defs><g transform="translate(-25.906 -85.815)"><path class="a" d="M57.161,85.815H28.5a2.6,2.6,0,0,0-2.6,2.6v17.01a2.6,2.6,0,0,0,2.6,2.6H57.161a2.6,2.6,0,0,0,2.6-2.6V88.411A2.6,2.6,0,0,0,57.161,85.815Zm.263,19.606a.267.267,0,0,1-.263.263H28.5a.267.267,0,0,1-.263-.263V88.411a.267.267,0,0,1,.263-.263H57.161a.267.267,0,0,1,.263.263Z" transform="translate(0)"/><path class="a" d="M189.932,143.538l3.775,6.539,3.775,6.539h-15.1l3.775-6.539Z" transform="translate(-141.263 -52.111)"/><path class="a" d="M116.166,189.268l2.492,4.316,2.492,4.316h-9.968l2.492-4.316Z" transform="translate(-76.986 -93.395)"/><circle class="a" cx="1.886" cy="1.886" r="1.886" transform="translate(31.129 90.14)"/></g></svg>