<svg xmlns="http://www.w3.org/2000/svg" width="50" height="50" viewBox="0 0 50 50"><defs><style>.a{fill:#fff;}</style></defs><path class="a" d="M46.429,32H3.56A3.587,3.587,0,0,0,0,35.6V78.4A3.587,3.587,0,0,0,3.56,82H46.429A3.6,3.6,0,0,0,50,78.4V35.6A3.6,3.6,0,0,0,46.429,32ZM15.112,74.857H7.7V51h7.422V74.857ZM11.406,47.737a4.3,4.3,0,1,1,4.3-4.3A4.3,4.3,0,0,1,11.406,47.737ZM42.891,74.857H35.48V63.25c0-2.768-.056-6.328-3.85-6.328-3.862,0-4.453,3.013-4.453,6.127V74.857H19.766V51h7.109v3.259h.1A7.806,7.806,0,0,1,34,50.4c7.5,0,8.9,4.944,8.9,11.373Z" transform="translate(0 -32)"/></svg>