<svg xmlns="http://www.w3.org/2000/svg" width="291.93" height="86.771" viewBox="0 0 291.93 86.771"><defs><style>.a,.d{fill:#005681;}.b{fill:#e18800;}.b,.d,.e{fill-rule:evenodd;}.c,.e{fill:#fff;}</style></defs><g transform="translate(0 0)"><g transform="translate(0.642 53.841)"><path class="a" d="M11.46,95.807V70.895H24.712v2.219H13.68v6.128h9.74v2.22H13.68V93.587H24.712v2.22Z" transform="translate(-11.46 -70.861)"/><path class="a" d="M29.409,94.763A6.044,6.044,0,0,0,35.472,88.7a8.222,8.222,0,0,1,8.282-8.282v2.22A6.044,6.044,0,0,0,37.691,88.7a8.222,8.222,0,0,1-8.282,8.282Z" transform="translate(-13.74 -72.071)"/><path class="a" d="M48.991,77.08h2.22v3.014H57.24v2.219H51.21v6.063a6.037,6.037,0,0,0,6.062,6.029v2.22a8.215,8.215,0,0,1-8.282-8.249Z" transform="translate(-16.228 -71.647)"/><path class="a" d="M77.954,97.041h-2.22V94.689a8.264,8.264,0,0,1-6.062,2.584,8.377,8.377,0,0,1-8.348-8.349V80.609h2.22v8.315a6.1,6.1,0,1,0,12.191,0V80.609h2.22Z" transform="translate(-17.794 -72.095)"/><path class="a" d="M98.769,81.855v-11h2.22V87.618a8.194,8.194,0,1,1-2.22-5.764Zm0,5.731a6.1,6.1,0,1,0-6.1,6.1,6.1,6.1,0,0,0,6.1-6.1Z" transform="translate(-20.72 -70.856)"/><path class="a" d="M109.7,77.211a1.894,1.894,0,1,1,1.355-.543A1.908,1.908,0,0,1,109.7,77.211Zm-1.094,2.65h2.22V96.127H108.6Z" transform="translate(-23.699 -71.182)"/><path class="a" d="M132.788,88.843a8.315,8.315,0,1,1-8.348-8.348A8.315,8.315,0,0,1,132.788,88.843Zm-2.22-.032a6.079,6.079,0,1,0-1.781,4.315,6.1,6.1,0,0,0,1.781-4.315Z" transform="translate(-24.76 -72.081)"/><path class="a" d="M153.8,95.807V70.895h13.383v2.252H156.021v6.128h9.773v2.22h-9.773V95.807Z" transform="translate(-29.542 -70.861)"/><path class="a" d="M188.077,88.843a8.315,8.315,0,1,1-8.349-8.348,8.315,8.315,0,0,1,8.349,8.348Zm-2.22-.032a6.079,6.079,0,1,0-1.781,4.315A6.1,6.1,0,0,0,185.857,88.81Z" transform="translate(-31.783 -72.081)"/><path class="a" d="M194.254,77.08h2.219v3.014H202.5v2.219h-6.029v6.063a6.037,6.037,0,0,0,6.062,6.029v2.22a8.215,8.215,0,0,1-8.281-8.249Z" transform="translate(-34.68 -71.647)"/><path class="a" d="M222.685,88.843a8.315,8.315,0,1,1-8.349-8.348,8.315,8.315,0,0,1,8.349,8.348Zm-2.22-.032a6.079,6.079,0,1,0-1.781,4.315,6.1,6.1,0,0,0,1.781-4.315Z" transform="translate(-36.179 -72.081)"/><path class="a" d="M242.432,94.471A8.337,8.337,0,1,1,236.3,80.457a8.413,8.413,0,0,1,8.349,8.315v7.951a8.223,8.223,0,0,1-8.282,8.282v-2.22a6.023,6.023,0,0,0,6.062-6.062Zm0-5.433v-.265a5.964,5.964,0,1,0,0,.265Z" transform="translate(-38.966 -72.076)"/><path class="a" d="M251.517,80.642h2.219v2.584a8.168,8.168,0,0,1,6.063-2.616v2.219a6.037,6.037,0,0,0-6.063,5.8v8.415h-2.219Z" transform="translate(-41.954 -72.095)"/><path class="a" d="M279.374,87.71c0,.365-.033.762-.066,1.094a5.936,5.936,0,0,0,2.551,4.638v2.551a7.981,7.981,0,0,1-3.875-3.644,8.367,8.367,0,1,1,1.391-4.639Zm-2.22-.032a6.1,6.1,0,1,0-6.1,6.1A6.1,6.1,0,0,0,277.154,87.678ZM274.538,73.6l-5,4.075-1.094-1.093,4.108-5Z" transform="translate(-43.376 -70.948)"/><path class="a" d="M286.884,79.295a8.215,8.215,0,0,1,8.282-8.249v2.22a6.037,6.037,0,0,0-6.063,6.029v.564h5.4v2.219h-5.4V95.793h-2.219Z" transform="translate(-46.447 -70.88)"/><path class="a" d="M300.687,77.211a1.894,1.894,0,1,1,1.355-.543,1.908,1.908,0,0,1-1.355.543Zm-1.093,2.65h2.219V96.127h-2.219Z" transform="translate(-47.961 -71.182)"/><path class="a" d="M319.838,84.389l-.033-.033a6.091,6.091,0,1,0,0,8.614l1.557,1.557v.033A8.316,8.316,0,1,1,321.4,82.8Z" transform="translate(-49.023 -72.066)"/><path class="a" d="M342.714,88.843a8.315,8.315,0,1,1-8.349-8.348,8.315,8.315,0,0,1,8.349,8.348Zm-2.22-.032a6.079,6.079,0,1,0-1.78,4.315,6.1,6.1,0,0,0,1.78-4.315Z" transform="translate(-51.427 -72.081)"/></g><path class="b" d="M142.169,14.42a14.743,14.743,0,0,1,14.389,12.41,14.9,14.9,0,0,1-7.485,15.387,17.775,17.775,0,0,1-2.335,1.1,14.692,14.692,0,0,1-6.846.612,14.458,14.458,0,0,1-12.733-12.766,14.786,14.786,0,0,1,15.01-16.738Z" transform="translate(-25.499 -9.846)"/><path class="c" d="M133.031,22.322a9.174,9.174,0,0,1,4.178-3.928,9.3,9.3,0,0,1,5.671-.827,17.843,17.843,0,0,0-5.332,1.543,17.172,17.172,0,0,0-4.516,3.213Z" transform="translate(-26.261 -10.229)"/><rect class="a" width="5.238" height="291.449" transform="translate(291.497 43.96) rotate(90)"/><g transform="translate(0 0)"><path class="a" d="M15.475,14.334V22.66H29.217v4.8H15.475V48H10.724V9.532H31.362v4.8Z" transform="translate(-10.724 -9.225)"/><path class="a" d="M78.238,28.593a19.382,19.382,0,1,1-5.677-13.735A19.361,19.361,0,0,1,78.238,28.593Zm-4.8,0A14.559,14.559,0,1,0,58.826,43.1,14.559,14.559,0,0,0,73.437,28.593Z" transform="translate(-14.382 -9.181)"/><path class="a" d="M113.756,14.509H103.436V47.918h-4.8V14.509H88.265v-4.8h25.491Z" transform="translate(-20.574 -9.248)"/><path class="a" d="M160.577,28.593A19.382,19.382,0,1,1,154.9,14.857,19.361,19.361,0,0,1,160.577,28.593Zm-4.8,0A14.559,14.559,0,1,0,141.165,43.1a14.559,14.559,0,0,0,14.61-14.508Z" transform="translate(-24.841 -9.181)"/><path class="a" d="M206.81,28.915a19.2,19.2,0,0,1-19,19.157h-9.655V9.708h9.655a19.242,19.242,0,0,1,19,19.208Zm-4.8,0a14.446,14.446,0,0,0-14.2-14.406h-4.852V43.27h4.852a14.4,14.4,0,0,0,14.2-14.355Z" transform="translate(-31.992 -9.248)"/><path class="a" d="M226.085,9.766V47.977h-4.8V9.766Z" transform="translate(-37.471 -9.255)"/><path class="a" d="M270.109,22.623V42.138a19.285,19.285,0,1,1,0-27.228l-3.32,3.372a14.485,14.485,0,1,0-1.482,21.711V27.425h-8.582v-4.8Z" transform="translate(-39.504 -9.188)"/></g><g transform="translate(239.061 0.004)"><path class="d" d="M331.726,14.995h-5.344v-.772a5.036,5.036,0,0,0-5.036-5.037h-12.97a5.032,5.032,0,0,0-5.03,5.037v.772h-13.5a5.282,5.282,0,0,0-5.279,5.288V42.62a5.282,5.282,0,0,0,5.279,5.283h41.875a5.285,5.285,0,0,0,5.282-5.283V20.282a5.286,5.286,0,0,0-5.282-5.288Z" transform="translate(-284.572 -9.185)"/><path class="e" d="M293.028,19.849c0,.558-1.115,1.01-2.492,1.01s-2.489-.452-2.489-1.01,1.115-1.011,2.489-1.011S293.028,19.29,293.028,19.849Z" transform="translate(-285.013 -10.411)"/><circle class="c" cx="11.786" cy="11.786" r="11.786" transform="translate(18.457 10.448)"/><path class="d" d="M325.1,33.652a6.884,6.884,0,1,1-6.884-6.884,6.884,6.884,0,0,1,6.884,6.884Z" transform="translate(-287.971 -11.419)"/><g transform="translate(12.05 11.459)"><line class="a" y2="20.679" transform="translate(0.482 0)"/><path class="c" d="M298.9,22.312q.2,5.17.324,10.34c.05,1.723.153,3.446.093,5.17a47.629,47.629,0,0,1-.417,5.17h-.093a47.588,47.588,0,0,1-.417-5.17c-.061-1.723.043-3.446.093-5.17q.124-5.17.324-10.34Z" transform="translate(-298.376 -22.312)"/></g></g><path class="d" d="M167.093,15.786c-1.093-2.21-6.8-1.8-14.552.624l1.264,1.9c3.957-.907,6.7-.839,7.328.424,1.286,2.595-6.845,9.237-18.161,14.829S121.449,41.591,120.163,39c-.593-1.2.828-3.264,3.642-5.689l-.609-2.315c-6.424,4.592-10.065,8.777-8.992,10.948,1.725,3.492,14.966.467,29.569-6.761S168.819,19.277,167.093,15.786Z" transform="translate(-23.845 -9.836)"/></g></svg>